<svg xmlns="http://www.w3.org/2000/svg" viewBox="0 0 47.251 41.946"><path fill="#63d8c4" d="M43.454 3.717a12.875 12.875 0 00-18.183.077l-1.716 1.723-1.716-1.718A12.856 12.856 0 003.656 21.976l19.826 19.97 20.041-20.038a12.87 12.87 0 00-.069-18.191zm-1.576 16.691L23.484 38.799l-.208-.21L5.223 20.406A10.638 10.638 0 0112.746 2.25h.028a10.647 10.647 0 017.5 3.118l3.283 3.283 3.283-3.283a10.638 10.638 0 0115.04 15.04z"/><path fill="#63d8c4" d="M39.476 7.978a7.249 7.249 0 00-10.239-.206l-5.681 5.681-5.688-5.685a7.188 7.188 0 00-5.118-2.123 7.24 7.24 0 00-5.127 12.358L23.498 33.99 39.48 18.007a7.216 7.216 0 00-.004-10.029zm-1.565 8.455L23.496 30.849l-.208-.212L9.2 16.427a5.022 5.022 0 013.55-8.563h.979l-.13.086a5.026 5.026 0 012.685 1.39l7.261 7.261 7.259-7.261a5.023 5.023 0 017.108 7.094z"/><path fill="#63d8c4" d="M12.683 11.741a1.11 1.11 0 00-1.109 1.109 1.131 1.131 0 001.111 1.108 1.109 1.109 0 000-2.217zM16.117 15.172a1.11 1.11 0 00-1.113 1.112 1.13 1.13 0 001.113 1.108 1.11 1.11 0 000-2.22zM19.764 18.821a1.11 1.11 0 00-1.109 1.109 1.129 1.129 0 001.113 1.109 1.109 1.109 0 000-2.217zM23.504 22.562a1.11 1.11 0 00-1.109 1.109 1.129 1.129 0 001.113 1.109 1.109 1.109 0 000-2.217zM34.375 11.741a1.109 1.109 0 101.107 1.109 1.11 1.11 0 00-1.107-1.109zM30.947 15.172a1.109 1.109 0 101.107 1.109 1.11 1.11 0 00-1.107-1.109zM27.296 18.821a1.109 1.109 0 00-1.107 1.109 1.127 1.127 0 001.111 1.109 1.109 1.109 0 000-2.217z"/></svg>