<?xml version="1.0" standalone="no"?>
<!DOCTYPE svg PUBLIC "-//W3C//DTD SVG 20010904//EN"
 "http://www.w3.org/TR/2001/REC-SVG-20010904/DTD/svg10.dtd">
<svg version="1.0" xmlns="http://www.w3.org/2000/svg"
 width="752.000000pt" height="752.000000pt" viewBox="0 0 752.000000 752.000000"
 preserveAspectRatio="xMidYMid meet">
<metadata>
Created by potrace 1.14, written by Peter Selinger 2001-2017
</metadata>
<g transform="translate(0.000000,752.000000) scale(0.100000,-0.100000)"
fill="#000000" stroke="none">
<path d="M5280 7083 c-43 -6 -223 -35 -239 -38 -77 -15 -253 -69 -323 -99 -21
-9 -39 -16 -40 -15 -2 1 -21 -7 -43 -18 -22 -12 -44 -22 -50 -24 -41 -13 -333
-192 -355 -218 -3 -3 -27 -24 -55 -45 -27 -22 -132 -121 -233 -220 -101 -100
-187 -182 -191 -184 -4 -1 -82 71 -172 160 -90 90 -186 181 -214 203 -27 22
-54 45 -60 51 -5 6 -26 22 -45 34 -19 13 -37 27 -40 30 -10 11 -140 90 -149
90 -5 0 -11 4 -13 8 -5 13 -203 107 -308 145 -88 33 -248 77 -330 91 -19 3
-45 8 -57 10 -68 14 -176 21 -313 21 -141 0 -305 -11 -321 -21 -4 -2 -22 -6
-40 -8 -77 -11 -115 -19 -132 -27 -9 -5 -17 -8 -17 -5 0 8 -160 -44 -264 -85
-399 -160 -743 -451 -976 -828 -29 -47 -59 -99 -66 -115 -8 -17 -19 -38 -24
-46 -5 -8 -21 -42 -35 -75 -15 -33 -30 -69 -35 -80 -29 -64 -94 -292 -105
-371 -4 -21 -8 -46 -10 -54 -27 -103 -28 -504 -1 -655 63 -355 206 -675 422
-946 69 -87 88 -106 1176 -1201 510 -513 1195 -1202 1521 -1530 l594 -598
1614 1613 c888 886 1641 1644 1674 1682 33 38 66 76 73 83 6 7 12 17 12 21 0
4 8 16 18 27 25 27 74 100 103 154 13 25 27 47 30 50 11 10 77 147 101 210 14
36 29 74 33 85 5 11 9 22 10 25 1 3 4 12 8 20 26 64 77 286 94 410 10 71 10
384 1 477 -9 85 -31 199 -59 303 -12 41 -22 82 -24 90 -2 8 -9 29 -16 45 -7
17 -13 32 -14 35 -8 33 -34 92 -93 220 -9 19 -38 70 -64 113 -26 43 -48 80
-48 83 0 2 -6 12 -14 21 -8 10 -42 55 -75 100 -114 155 -304 333 -493 462 -75
51 -292 167 -353 189 -16 6 -55 20 -85 31 -52 20 -176 57 -223 67 -37 8 -170
32 -212 39 -44 8 -415 14 -455 8z m-3125 -357 c219 -15 410 -67 625 -171 65
-31 73 -36 168 -97 41 -27 76 -48 79 -48 2 0 10 -6 17 -12 7 -7 33 -29 57 -48
24 -19 178 -168 341 -330 164 -162 303 -295 308 -295 5 0 141 131 302 291 161
159 328 316 370 347 150 111 307 194 480 251 94 32 117 38 186 51 13 2 31 6
40 9 80 23 339 35 465 21 26 -3 68 -7 94 -10 25 -2 55 -7 66 -11 10 -3 29 -7
40 -9 38 -5 179 -46 216 -61 20 -9 43 -17 51 -19 22 -4 198 -91 245 -120 22
-14 47 -28 55 -32 8 -4 20 -10 25 -15 121 -92 196 -157 268 -230 84 -87 197
-228 197 -247 0 -5 4 -11 8 -13 12 -5 64 -95 111 -193 71 -149 129 -343 145
-490 4 -27 8 -61 11 -75 10 -53 4 -333 -9 -397 -3 -16 -8 -43 -11 -60 -41
-252 -163 -524 -334 -743 -65 -84 -3016 -3040 -3034 -3040 -5 0 -188 180 -406
399 -218 220 -830 837 -1361 1371 -1382 1391 -1249 1252 -1356 1415 -123 187
-219 429 -250 625 -3 19 -7 42 -10 50 -7 26 -16 161 -17 245 0 95 9 209 23
285 6 30 12 65 13 77 2 12 6 25 10 29 4 4 7 16 7 26 0 36 68 226 119 329 85
175 182 310 321 449 183 183 332 282 572 381 80 33 279 91 286 84 3 -3 11 0
19 6 7 6 13 9 13 7 0 -3 19 -2 43 3 23 5 96 11 162 15 66 4 122 8 123 10 2 1
9 1 15 -1 7 -2 48 -6 92 -9z"/>
<path d="M2039 6196 c-2 -2 -44 -6 -94 -10 -122 -8 -157 -14 -247 -42 -43 -14
-81 -25 -85 -26 -22 -4 -157 -76 -218 -116 -89 -60 -104 -72 -192 -161 -104
-106 -178 -216 -231 -346 -49 -119 -48 -115 -57 -160 -3 -16 -10 -46 -15 -65
-31 -117 -30 -321 1 -461 6 -26 12 -55 14 -65 2 -11 4 -19 5 -19 1 0 3 -9 5
-21 8 -38 75 -188 112 -249 71 -116 129 -180 515 -568 214 -216 793 -798 1286
-1295 493 -496 900 -901 904 -900 9 4 2475 2467 2556 2554 69 74 77 84 123
154 64 99 144 285 154 360 2 14 9 52 15 85 12 61 17 270 7 315 -6 27 -19 118
-17 122 2 8 -62 182 -86 233 -32 68 -93 168 -106 173 -4 2 -8 9 -8 16 0 15
-168 190 -215 224 -79 58 -116 82 -124 82 -5 0 -11 3 -13 8 -8 20 -189 94
-298 122 -45 12 -55 14 -140 26 -51 7 -228 7 -280 0 -200 -26 -400 -108 -557
-227 -32 -24 -271 -256 -531 -515 l-473 -472 -479 478 c-264 263 -513 503
-555 535 -116 87 -299 173 -427 199 -13 3 -33 7 -46 10 -12 3 -59 8 -105 12
-45 3 -85 8 -88 10 -3 2 -8 2 -10 0z m137 -365 c-3 -4 20 -14 52 -20 70 -16
200 -76 267 -125 28 -19 320 -306 651 -636 l600 -600 589 589 c324 324 612
605 641 626 66 48 185 111 226 119 7 2 20 6 28 9 68 26 230 38 320 24 108 -16
182 -37 255 -74 54 -28 134 -79 150 -97 6 -6 29 -28 53 -48 23 -21 40 -38 37
-38 -3 0 9 -13 25 -29 17 -15 30 -31 30 -34 0 -3 13 -25 29 -49 26 -38 41 -68
72 -143 63 -150 64 -384 2 -555 -23 -61 -68 -146 -109 -200 -18 -25 -555 -567
-1194 -1205 l-1161 -1160 -530 535 c-292 294 -805 811 -1140 1148 -335 338
-629 637 -653 665 -38 45 -116 173 -123 202 -1 5 -11 35 -22 65 -45 128 -49
307 -10 455 75 280 321 509 614 569 67 14 308 19 301 7z"/>
<path d="M1986 5218 c-9 -5 -16 -6 -16 -3 0 11 -56 -24 -81 -52 -65 -70 -58
-183 14 -246 63 -54 141 -59 210 -15 40 26 77 97 77 147 0 47 -36 113 -75 140
-41 27 -106 42 -129 29z"/>
<path d="M5436 5218 c-99 -21 -161 -120 -134 -215 28 -102 115 -148 228 -121
58 14 113 91 116 162 4 106 -105 197 -210 174z"/>
<path d="M2506 4667 c-128 -44 -155 -212 -49 -303 95 -82 263 -21 278 101 3
19 5 38 6 42 1 4 1 10 -1 13 -1 3 -4 16 -6 29 -6 35 -49 88 -86 107 -38 20
-103 25 -142 11z"/>
<path d="M4870 4665 c-19 -8 -43 -17 -52 -21 -10 -3 -18 -10 -18 -14 0 -5 -6
-15 -13 -22 -20 -22 -37 -67 -37 -102 0 -191 249 -248 335 -77 37 74 0 187
-74 226 -44 22 -102 27 -141 10z"/>
<path d="M3094 4089 c-3 -5 -12 -9 -20 -9 -21 0 -64 -41 -85 -82 -54 -105 21
-238 142 -252 90 -9 177 66 183 159 5 72 -25 131 -86 168 -32 19 -125 30 -134
16z"/>
<path d="M4274 4080 c-172 -78 -116 -335 72 -332 129 1 206 133 147 251 -41
84 -136 119 -219 81z"/>
<path d="M3660 3482 c-70 -35 -112 -133 -87 -207 27 -79 104 -131 180 -122 61
8 88 23 121 68 31 40 35 52 37 104 7 125 -136 214 -251 157z"/>
</g>
</svg>
